# MagicaVoxel @ Ephtracy

# group
o 

# material
mtllib gatlinggun.mtl
usemtl palette

# normals
vn -1 0 0
vn 1 0 0
vn 0 0 1
vn 0 0 -1
vn 0 -1 0
vn 0 1 0

# texcoords
vt 0.974609 0.5
vt 0.986328 0.5

# verts
v -0.4 0 -0.8
v -0.4 0 -1
v -0.4 0.6 -0.8
v -0.4 0.6 -1
v -0.3 0.1 1
v -0.3 0.1 -0.8
v -0.3 0.5 1
v -0.3 0.5 -0.8
v 0 0.1 -0.8
v 0 0.1 -0.9
v 0 0.2 -0.8
v 0 0.2 -0.9
v 0.1 0.2 -0.8
v 0.1 0.2 -0.9
v 0.1 0.5 -0.8
v 0.1 0.5 -0.9
v -0.1 0.1 -0.8
v -0.1 0.1 -0.9
v -0.1 0.5 -0.8
v -0.1 0.5 -0.9
v 0.1 0.1 1
v 0.1 0.1 -0.8
v 0.1 0.5 1
v 0.1 0.5 -0.8
v 0.2 0 -0.8
v 0.2 0 -1
v 0.2 0.6 -0.8
v 0.2 0.6 -1
v -0.3 0.1 1
v -0.3 0.5 1
v 0.1 0.1 1
v 0.1 0.5 1
v -0.4 0 -0.8
v -0.4 0.6 -0.8
v -0.3 0.1 -0.8
v -0.3 0.5 -0.8
v 0.1 0.1 -0.8
v 0.1 0.5 -0.8
v 0.2 0 -0.8
v 0.2 0.6 -0.8
v -0.1 0.1 -0.9
v -0.1 0.5 -0.9
v 0 0.1 -0.9
v 0 0.2 -0.9
v 0.1 0.2 -0.9
v 0.1 0.5 -0.9
v -0.1 0.1 -0.8
v -0.1 0.5 -0.8
v 0 0.1 -0.8
v 0 0.2 -0.8
v 0.1 0.2 -0.8
v 0.1 0.5 -0.8
v -0.4 0 -1
v -0.4 0.6 -1
v 0.2 0 -1
v 0.2 0.6 -1
v -0.4 0 -0.8
v 0.2 0 -0.8
v -0.4 0 -1
v 0.2 0 -1
v -0.3 0.1 1
v 0.1 0.1 1
v -0.3 0.1 -0.8
v 0.1 0.1 -0.8
v -0.1 0.5 -0.8
v 0.1 0.5 -0.8
v -0.1 0.5 -0.9
v 0.1 0.5 -0.9
v -0.1 0.1 -0.8
v 0 0.1 -0.8
v -0.1 0.1 -0.9
v 0 0.1 -0.9
v 0 0.2 -0.8
v 0.1 0.2 -0.8
v 0 0.2 -0.9
v 0.1 0.2 -0.9
v -0.3 0.5 1
v 0.1 0.5 1
v -0.3 0.5 -0.8
v 0.1 0.5 -0.8
v -0.4 0.6 -0.8
v 0.2 0.6 -0.8
v -0.4 0.6 -1
v 0.2 0.6 -1

# faces
f 3/2/1 2/2/1 1/2/1
f 4/2/1 2/2/1 3/2/1
f 7/1/1 6/1/1 5/1/1
f 8/1/1 6/1/1 7/1/1
f 11/2/1 10/2/1 9/2/1
f 12/2/1 10/2/1 11/2/1
f 15/2/1 14/2/1 13/2/1
f 16/2/1 14/2/1 15/2/1
f 17/2/2 18/2/2 19/2/2
f 19/2/2 18/2/2 20/2/2
f 21/1/2 22/1/2 23/1/2
f 23/1/2 22/1/2 24/1/2
f 25/2/2 26/2/2 27/2/2
f 27/2/2 26/2/2 28/2/2
f 31/1/3 30/1/3 29/1/3
f 32/1/3 30/1/3 31/1/3
f 35/2/3 34/2/3 33/2/3
f 36/2/3 34/2/3 35/2/3
f 37/2/3 35/2/3 33/2/3
f 38/2/3 34/2/3 36/2/3
f 39/2/3 37/2/3 33/2/3
f 39/2/3 38/2/3 37/2/3
f 40/2/3 34/2/3 38/2/3
f 40/2/3 38/2/3 39/2/3
f 43/2/3 42/2/3 41/2/3
f 44/2/3 42/2/3 43/2/3
f 45/2/3 42/2/3 44/2/3
f 46/2/3 42/2/3 45/2/3
f 47/1/4 48/1/4 49/1/4
f 49/1/4 48/1/4 50/1/4
f 50/1/4 48/1/4 51/1/4
f 51/1/4 48/1/4 52/1/4
f 53/2/4 54/2/4 55/2/4
f 55/2/4 54/2/4 56/2/4
f 59/2/5 58/2/5 57/2/5
f 60/2/5 58/2/5 59/2/5
f 63/1/5 62/1/5 61/1/5
f 64/1/5 62/1/5 63/1/5
f 67/2/5 66/2/5 65/2/5
f 68/2/5 66/2/5 67/2/5
f 69/2/6 70/2/6 71/2/6
f 71/2/6 70/2/6 72/2/6
f 73/2/6 74/2/6 75/2/6
f 75/2/6 74/2/6 76/2/6
f 77/1/6 78/1/6 79/1/6
f 79/1/6 78/1/6 80/1/6
f 81/2/6 82/2/6 83/2/6
f 83/2/6 82/2/6 84/2/6
