# MagicaVoxel @ Ephtracy

# group
o 

# material
mtllib sniper.mtl
usemtl palette

# normals
vn -1 0 0
vn 1 0 0
vn 0 0 1
vn 0 0 -1
vn 0 -1 0
vn 0 1 0

# texcoords
vt 0.958984 0.5
vt 0.994141 0.5

# verts
v -0.1 0 -0.9
v -0.1 0 -1.7
v -0.1 0.4 0.7
v -0.1 0.4 -0.9
v -0.1 0.6 1.7
v -0.1 0.6 0.7
v -0.1 0.6 -1.1
v -0.1 0.6 -1.7
v -0.1 0.8 1.7
v -0.1 0.8 0.7
v -0.1 0.8 -0.0999999
v -0.1 0.8 -0.9
v -0.1 0.8 -1.1
v -0.1 1 -0.0999999
v -0.1 1 -0.9
v 0.1 0 -0.9
v 0.1 0 -1.7
v 0.1 0.4 0.7
v 0.1 0.4 -0.9
v 0.1 0.6 1.7
v 0.1 0.6 0.7
v 0.1 0.6 -1.1
v 0.1 0.6 -1.7
v 0.1 0.8 1.7
v 0.1 0.8 0.7
v 0.1 0.8 -0.0999999
v 0.1 0.8 -0.9
v 0.1 0.8 -1.1
v 0.1 1 -0.0999999
v 0.1 1 -0.9
v -0.1 0.6 1.7
v -0.1 0.8 1.7
v 0.1 0.6 1.7
v 0.1 0.8 1.7
v -0.1 0.4 0.7
v -0.1 0.6 0.7
v 0.1 0.4 0.7
v 0.1 0.6 0.7
v -0.1 0.8 -0.0999999
v -0.1 1 -0.0999999
v 0.1 0.8 -0.0999999
v 0.1 1 -0.0999999
v -0.1 0 -0.9
v -0.1 0.4 -0.9
v 0.1 0 -0.9
v 0.1 0.4 -0.9
v -0.1 0.8 -0.9
v -0.1 1 -0.9
v 0.1 0.8 -0.9
v 0.1 1 -0.9
v -0.1 0.6 -1.1
v -0.1 0.8 -1.1
v 0.1 0.6 -1.1
v 0.1 0.8 -1.1
v -0.1 0 -1.7
v -0.1 0.6 -1.7
v 0.1 0 -1.7
v 0.1 0.6 -1.7
v -0.1 0 -0.9
v 0.1 0 -0.9
v -0.1 0 -1.7
v 0.1 0 -1.7
v -0.1 0.4 0.7
v 0.1 0.4 0.7
v -0.1 0.4 -0.9
v 0.1 0.4 -0.9
v -0.1 0.6 1.7
v 0.1 0.6 1.7
v -0.1 0.6 0.7
v 0.1 0.6 0.7
v -0.1 0.6 -1.1
v 0.1 0.6 -1.1
v -0.1 0.6 -1.7
v 0.1 0.6 -1.7
v -0.1 0.8 1.7
v 0.1 0.8 1.7
v -0.1 0.8 0.7
v 0.1 0.8 0.7
v -0.1 0.8 -0.0999999
v 0.1 0.8 -0.0999999
v -0.1 0.8 -0.9
v 0.1 0.8 -0.9
v -0.1 0.8 -1.1
v 0.1 0.8 -1.1
v -0.1 1 -0.0999999
v 0.1 1 -0.0999999
v -0.1 1 -0.9
v 0.1 1 -0.9

# faces
f 4/1/1 2/1/1 1/1/1
f 6/1/1 4/1/1 3/1/1
f 7/1/1 2/1/1 4/1/1
f 7/1/1 4/1/1 6/1/1
f 8/1/1 2/1/1 7/1/1
f 9/2/1 6/2/1 5/2/1
f 10/1/1 7/1/1 6/1/1
f 10/2/1 6/2/1 9/2/1
f 11/1/1 7/1/1 10/1/1
f 12/1/1 7/1/1 11/1/1
f 13/1/1 7/1/1 12/1/1
f 14/2/1 12/2/1 11/2/1
f 15/2/1 12/2/1 14/2/1
f 16/1/2 17/1/2 19/1/2
f 18/1/2 19/1/2 21/1/2
f 19/1/2 17/1/2 22/1/2
f 21/1/2 19/1/2 22/1/2
f 22/1/2 17/1/2 23/1/2
f 20/2/2 21/2/2 24/2/2
f 21/1/2 22/1/2 25/1/2
f 24/2/2 21/2/2 25/2/2
f 25/1/2 22/1/2 26/1/2
f 26/1/2 22/1/2 27/1/2
f 27/1/2 22/1/2 28/1/2
f 26/2/2 27/2/2 29/2/2
f 29/2/2 27/2/2 30/2/2
f 33/2/3 32/2/3 31/2/3
f 34/2/3 32/2/3 33/2/3
f 37/1/3 36/1/3 35/1/3
f 38/1/3 36/1/3 37/1/3
f 41/2/3 40/2/3 39/2/3
f 42/2/3 40/2/3 41/2/3
f 45/1/3 44/1/3 43/1/3
f 46/1/3 44/1/3 45/1/3
f 47/2/4 48/2/4 49/2/4
f 49/2/4 48/2/4 50/2/4
f 51/1/4 52/1/4 53/1/4
f 53/1/4 52/1/4 54/1/4
f 55/1/4 56/1/4 57/1/4
f 57/1/4 56/1/4 58/1/4
f 61/1/5 60/1/5 59/1/5
f 62/1/5 60/1/5 61/1/5
f 65/1/5 64/1/5 63/1/5
f 66/1/5 64/1/5 65/1/5
f 69/2/5 68/2/5 67/2/5
f 70/2/5 68/2/5 69/2/5
f 71/1/6 72/1/6 73/1/6
f 73/1/6 72/1/6 74/1/6
f 75/2/6 76/2/6 77/2/6
f 77/2/6 76/2/6 78/2/6
f 77/1/6 78/1/6 79/1/6
f 79/1/6 78/1/6 80/1/6
f 81/1/6 82/1/6 83/1/6
f 83/1/6 82/1/6 84/1/6
f 85/2/6 86/2/6 87/2/6
f 87/2/6 86/2/6 88/2/6
